<?xml version="1.0" encoding="UTF-8" standalone="no"?>
<!-- Created with Inkscape (http://www.inkscape.org/) -->

<svg
   xmlns:dc="http://purl.org/dc/elements/1.1/"
   xmlns:cc="http://creativecommons.org/ns#"
   xmlns:rdf="http://www.w3.org/1999/02/22-rdf-syntax-ns#"
   xmlns:svg="http://www.w3.org/2000/svg"
   xmlns="http://www.w3.org/2000/svg"
   xmlns:xlink="http://www.w3.org/1999/xlink"
   version="1.2"
   width="1052.3622"
   height="1488.189"
   id="svg2">
  <defs
     id="defs4">
    <linearGradient
       id="linearGradient5315">
      <stop
         id="stop5317"
         style="stop-color:#000000;stop-opacity:1"
         offset="0" />
    </linearGradient>
    <linearGradient
       id="linearGradient3829">
      <stop
         id="stop3831"
         style="stop-color:#ffffff;stop-opacity:0.14615385"
         offset="0" />
      <stop
         id="stop3833"
         style="stop-color:#ffffff;stop-opacity:0"
         offset="1" />
    </linearGradient>
    <radialGradient
       cx="1845.7142"
       cy="982.47565"
       r="661.78571"
       fx="1845.7142"
       fy="982.47565"
       id="radialGradient3860"
       xlink:href="#linearGradient3829"
       gradientUnits="userSpaceOnUse" />
    <radialGradient
       cx="1845.7142"
       cy="982.47565"
       r="661.78571"
       fx="1845.7142"
       fy="982.47565"
       id="radialGradient3874"
       xlink:href="#linearGradient3829"
       gradientUnits="userSpaceOnUse" />
    <radialGradient
       cx="1845.7142"
       cy="982.47565"
       r="661.78571"
       fx="1845.7142"
       fy="982.47565"
       id="radialGradient3850"
       xlink:href="#linearGradient3829"
       gradientUnits="userSpaceOnUse" />
    <radialGradient
       cx="1845.7142"
       cy="982.47565"
       r="661.78571"
       fx="1845.7142"
       fy="982.47565"
       id="radialGradient3852"
       xlink:href="#linearGradient3829"
       gradientUnits="userSpaceOnUse" />
    <radialGradient
       cx="1845.7142"
       cy="982.47565"
       r="661.78571"
       fx="1845.7142"
       fy="982.47565"
       id="radialGradient4049"
       xlink:href="#linearGradient3829"
       gradientUnits="userSpaceOnUse" />
    <radialGradient
       cx="1845.7142"
       cy="982.47565"
       r="661.78571"
       fx="1845.7142"
       fy="982.47565"
       id="radialGradient4051"
       xlink:href="#linearGradient3829"
       gradientUnits="userSpaceOnUse" />
    <path
       d="m 136.84375,605.9415 c 22.49443,4.7723 45.39639,6.85144 68.34375,8.09375 92.60775,6.30859 185.23938,-2.26305 277.72261,-6.5431 34.42488,-0.5085 69.41647,-4.27065 103.40239,2.6056 6.59997,2.13723 15.11694,2.25757 20.15625,7.5625"
       transform="matrix(1.0670638,0,0,2.2282755,-131.57696,-845.90422)"
       id="path3862"
       style="fill:none;stroke:none;display:inline" />
    <path
       d="m 136.84375,605.9415 c 22.49443,4.7723 45.39639,6.85144 68.34375,8.09375 92.60775,6.30859 185.23938,-2.26305 277.72261,-6.5431 34.42488,-0.5085 69.41647,-4.27065 103.40239,2.6056 6.59997,2.13723 15.11694,2.25757 20.15625,7.5625"
       transform="matrix(1.0670638,0,0,2.2282755,-131.57696,-845.90422)"
       id="path3862-1"
       style="fill:none;stroke:none;display:inline" />
    <radialGradient
       cx="1845.7142"
       cy="982.47565"
       r="661.78571"
       fx="1845.7142"
       fy="982.47565"
       id="radialGradient4344"
       xlink:href="#linearGradient3829"
       gradientUnits="userSpaceOnUse" />
    <radialGradient
       cx="1845.7142"
       cy="982.47565"
       r="661.78571"
       fx="1845.7142"
       fy="982.47565"
       id="radialGradient4346"
       xlink:href="#linearGradient3829"
       gradientUnits="userSpaceOnUse" />
    <radialGradient
       cx="1845.7142"
       cy="982.47565"
       r="661.78571"
       fx="1845.7142"
       fy="982.47565"
       id="radialGradient3027"
       xlink:href="#linearGradient3829"
       gradientUnits="userSpaceOnUse" />
    <radialGradient
       cx="1845.7142"
       cy="982.47565"
       r="661.78571"
       fx="1845.7142"
       fy="982.47565"
       id="radialGradient3029"
       xlink:href="#linearGradient3829"
       gradientUnits="userSpaceOnUse" />
    <radialGradient
       cx="1845.7142"
       cy="982.47565"
       r="661.78571"
       fx="1845.7142"
       fy="982.47565"
       id="radialGradient3058"
       xlink:href="#linearGradient3829"
       gradientUnits="userSpaceOnUse" />
    <radialGradient
       cx="1845.7142"
       cy="982.47565"
       r="661.78571"
       fx="1845.7142"
       fy="982.47565"
       id="radialGradient3060"
       xlink:href="#linearGradient3829"
       gradientUnits="userSpaceOnUse" />
    <radialGradient
       cx="1845.7142"
       cy="982.47565"
       r="661.78571"
       fx="1845.7142"
       fy="982.47565"
       id="radialGradient3104"
       xlink:href="#linearGradient3829"
       gradientUnits="userSpaceOnUse" />
    <radialGradient
       cx="1845.7142"
       cy="982.47565"
       r="661.78571"
       fx="1845.7142"
       fy="982.47565"
       id="radialGradient3106"
       xlink:href="#linearGradient3829"
       gradientUnits="userSpaceOnUse" />
    <radialGradient
       cx="1845.7142"
       cy="982.47565"
       r="661.78571"
       fx="1845.7142"
       fy="982.47565"
       id="radialGradient3117"
       xlink:href="#linearGradient3829"
       gradientUnits="userSpaceOnUse" />
    <clipPath
       id="clipPath5341">
      <rect
         width="435.37"
         height="326.52802"
         rx="30"
         ry="30"
         x="521.32281"
         y="740.27954"
         id="rect5343"
         style="color:#000000;fill:#000000;fill-opacity:1;stroke:none;stroke-width:1;marker:none;visibility:visible;display:inline;overflow:visible;enable-background:accumulate" />
    </clipPath>
    <filter
       color-interpolation-filters="sRGB"
       id="filter5431">
      <feGaussianBlur
         id="feGaussianBlur5433"
         stdDeviation="8.1053141" />
    </filter>
    <filter
       color-interpolation-filters="sRGB"
       id="filter5435">
      <feGaussianBlur
         id="feGaussianBlur5437"
         stdDeviation="8.1053141" />
    </filter>
    <filter
       color-interpolation-filters="sRGB"
       id="filter5573">
      <feGaussianBlur
         id="feGaussianBlur5575"
         stdDeviation="21.038387" />
    </filter>
  </defs>
  <metadata
     id="metadata7">
    <rdf:RDF>
      <cc:Work
         rdf:about="">
        <dc:format>image/svg+xml</dc:format>
        <dc:type
           rdf:resource="http://purl.org/dc/dcmitype/StillImage" />
        <dc:title></dc:title>
      </cc:Work>
    </rdf:RDF>
  </metadata>
  <g
     id="layer2">
    <rect
       width="1052.36"
       height="1488.1899"
       x="0.00109863"
       y="-0.00053515623"
       id="rect2996"
       style="fill:#c02626;fill-opacity:1" />
  </g>
  <g
     id="layer8">
    <rect
       width="435.82675"
       height="212.59837"
       rx="30"
       ry="30"
       x="74.40937"
       y="1179.9213"
       id="rect3921-7"
       style="opacity:0.5;color:#000000;fill:#000000;fill-opacity:1;stroke:none;stroke-width:1;marker:none;visibility:visible;display:inline;overflow:visible;filter:url(#filter5435);enable-background:accumulate" />
    <rect
       width="435.82675"
       height="212.59837"
       rx="30"
       ry="30"
       x="549.21259"
       y="1179.9213"
       id="rect3921-4"
       style="opacity:0.5;color:#000000;fill:#000000;fill-opacity:1;stroke:none;stroke-width:1;marker:none;visibility:visible;display:inline;overflow:visible;filter:url(#filter5431);enable-background:accumulate" />
    <rect
       width="910.62994"
       height="772.44098"
       rx="30"
       ry="30"
       x="76.866142"
       y="360.33066"
       id="rect3139-3"
       style="opacity:0.5;color:#000000;fill:#000000;fill-opacity:1;stroke:none;stroke-width:1;marker:none;visibility:visible;display:inline;overflow:visible;filter:url(#filter5573);enable-background:accumulate" />
  </g>
  <g
     id="layer7">
    <g
       transform="translate(112.4053,-1.5624983e-7)"
       id="g3085">
      <text
         x="471.87491"
         y="1451.7228"
         id="text4018"
         xml:space="preserve"
         style="font-size:40px;font-style:normal;font-weight:normal;line-height:125%;letter-spacing:0px;word-spacing:0px;fill:#ffffff;fill-opacity:1;stroke:none;font-family:Sans"><tspan
           x="471.87491"
           y="1451.7228"
           id="tspan4020"
           style="font-size:30px;font-style:normal;font-variant:normal;font-weight:normal;font-stretch:normal;font-family:Palatino LT Std;-inkscape-font-specification:Palatino LT Std">www.facebook.com/cssc.uwa</tspan></text>
      <path
         d="m 452.05491,1427.6497 c 0,-3.9249 -3.54342,-7.4698 -7.46928,-7.4698 h -29.8771 c -3.92586,0 -7.46928,3.5449 -7.46928,7.4698 v 29.8761 c 0,3.9249 3.54342,7.4698 7.46977,7.4698 h 14.93806 v -16.9303 h -5.47747 v -7.4693 h 5.47747 v -2.9101 c 0,-5.0188 3.769,-9.5387 8.40294,-9.5387 h 6.03766 v 7.4692 h -6.03766 c -0.66079,0 -1.43161,0.8022 -1.43161,2.0038 v 2.9758 h 7.46927 v 7.4693 h -7.46927 v 16.9303 h 7.96722 c 3.92586,0 7.46928,-3.5449 7.46928,-7.4698 v -29.8761 z"
         id="Facebook__x28_alt_x29_"
         style="fill:#ffffff" />
    </g>
    <g
       transform="translate(44.884516,-1.5624983e-7)"
       id="g3090">
      <text
         x="90.626144"
         y="1451.7228"
         id="text4014"
         xml:space="preserve"
         style="font-size:40px;font-style:normal;font-weight:normal;line-height:125%;letter-spacing:0px;word-spacing:0px;fill:#ffffff;fill-opacity:1;stroke:none;font-family:Sans"><tspan
           x="90.626144"
           y="1451.7228"
           id="tspan4016"
           style="font-size:30px;font-style:normal;font-variant:normal;font-weight:normal;font-stretch:normal;font-family:Palatino LT Std;-inkscape-font-specification:Palatino LT Std">www.cssc.asn.au</tspan></text>
      <path
         d="m 42.591204,1428.3066 5.94454,20.2681 5.94605,-20.2681 h 4.30379 10.211 v 2.0784 l -5.26683,10.4829 c 2.12974,0.6872 4.14395,1.937 5.23746,3.7426 1.093,1.809 1.83893,3.9348 1.83893,6.3733 0,3.0156 -0.70012,5.5477 -2.30004,7.6042 -1.59793,2.0536 -3.61712,3.0813 -6.16016,3.0813 -1.91413,0 -3.55289,-0.6105 -4.97553,-1.828 -1.42166,-1.2204 -2.45889,-2.8702 -3.14158,-4.9556 l 3.36516,-1.3957 c 0.49297,1.2613 1.14479,2.2522 1.95296,2.9802 0.8042,0.726 1.75528,1.086 2.84879,1.086 1.14877,0 2.12127,-0.6428 2.91301,-1.9295 0.79175,-1.2902 1.18961,-2.8374 1.18961,-4.6469 0,-1.9993 -0.42674,-4.1569 -1.27227,-5.2504 -0.98345,-1.2907 -2.5286,-2.5401 -4.63344,-2.5401 h -2.83036 v -0.7598 l 6.9295,-10.4027 h -6.9275 l -0.39388,0.032 -8.42535,27.8734 h -0.40932 l -6.15169,-20.6386 -6.14672,20.6391 h -0.41131 l -9.83554,-31.6264 h 4.3028 l 5.94455,20.3005 4.01648,-13.6678 -1.96791,-6.6327 h 4.3048 z"
         id="W3"
         style="fill:#ffffff" />
    </g>
  </g>
  <g
     id="layer6"
     style="display:inline">
    <path
       d="m 100.875,1169.2812 c -16.62,0 -30,13.3801 -30,30 l 0,26.25 435.8125,0 0,-26.25 c 0,-16.6199 -13.38,-30 -30,-30 l -375.8125,0 z"
       id="rect4060"
       style="color:#000000;fill:#000000;fill-opacity:1;stroke:none;stroke-width:1;marker:none;visibility:visible;display:inline;overflow:visible;enable-background:accumulate" />
    <path
       d="m 70.875,1225.5312 0,126.3438 c 0,16.62 13.38,30 30,30 l 375.8125,0 c 16.62,0 30,-13.38 30,-30 l 0,-126.3438 z"
       id="rect4110"
       style="color:#000000;fill:#fafafa;fill-opacity:1;stroke:none;stroke-width:1;marker:none;visibility:visible;display:inline;overflow:visible;enable-background:accumulate" />
    <flowRoot
       transform="translate(-13.751732,744.50685)"
       id="flowRoot3935"
       xml:space="preserve"
       style="font-size:40px;font-style:normal;font-weight:normal;text-align:justify;line-height:125%;letter-spacing:0px;word-spacing:0px;text-anchor:start;fill:#000000;fill-opacity:1;stroke:none;font-family:Sans"><flowRegion
         id="flowRegion3937"><rect
           width="389.75806"
           height="235.30038"
           x="107.66199"
           y="497.23553"
           id="rect3939"
           style="text-align:justify;text-anchor:start" /></flowRegion><flowPara
         id="flowPara3943"
         style="font-size:20px;font-style:normal;font-variant:normal;font-weight:bold;font-stretch:normal;text-align:justify;text-anchor:start;font-family:Palatino LT Std;-inkscape-font-specification:Palatino LT Std">When: <flowSpan
   id="flowSpan4040"
   style="font-weight:normal">Tuesdays at 1pm during semester</flowSpan></flowPara><flowPara
         id="flowPara4032"
         style="font-size:20px;font-style:normal;font-variant:normal;font-weight:normal;font-stretch:normal;text-align:justify;text-anchor:start;font-family:Palatino LT Std;-inkscape-font-specification:Palatino LT Std"><flowSpan
   id="flowSpan4042"
   style="font-weight:bold">Where:</flowSpan> Rex Prider Courtyard (outside CS)</flowPara><flowPara
         id="flowPara4034"
         style="font-size:20px;font-style:normal;font-variant:normal;font-weight:normal;font-stretch:normal;text-align:justify;text-anchor:start;font-family:Palatino LT Std;-inkscape-font-specification:Palatino LT Std"><flowSpan
   id="flowSpan4044"
   style="font-weight:bold">What: </flowSpan>Weekly social barbecue; we sell sausages, hash browns, bacon and drinks.</flowPara><flowPara
         id="flowPara4052"
         style="font-size:30px;font-style:normal;font-variant:normal;font-weight:normal;font-stretch:normal;text-align:center;text-anchor:middle;font-family:Palatino LT Std;-inkscape-font-specification:Palatino LT Std">All are welcome!</flowPara><flowPara
         id="flowPara4036"
         style="font-size:20px;font-style:normal;font-variant:normal;font-weight:normal;font-stretch:normal;text-align:justify;text-anchor:start;font-family:Palatino LT Std;-inkscape-font-specification:Palatino LT Std" /></flowRoot>    <flowRoot
       transform="translate(-13.751732,688.1487)"
       id="flowRoot4069"
       xml:space="preserve"
       style="font-size:40px;font-style:normal;font-weight:normal;text-align:justify;line-height:125%;letter-spacing:0px;word-spacing:0px;text-anchor:start;fill:#ffffff;fill-opacity:1;stroke:none;font-family:Sans"><flowRegion
         id="flowRegion4071"><rect
           width="389.75806"
           height="235.30038"
           x="107.66199"
           y="497.23553"
           id="rect4073"
           style="text-align:justify;text-anchor:start;fill:#ffffff" /></flowRegion><flowPara
         id="flowPara4075"
         style="font-size:30px;font-style:normal;font-variant:normal;font-weight:600;font-stretch:normal;text-align:center;text-anchor:middle;fill:#ffffff;font-family:Palatino LT Std;-inkscape-font-specification:Palatino LT Std Semi-Bold">CSSC Barbecues</flowPara><flowPara
         id="flowPara4089"
         style="font-size:30px;font-style:normal;font-variant:normal;font-weight:normal;font-stretch:normal;text-align:center;text-anchor:middle;fill:#ffffff;font-family:Palatino LT Std;-inkscape-font-specification:Palatino LT Std" /><flowPara
         id="flowPara4091"
         style="font-size:20px;font-style:normal;font-variant:normal;font-weight:normal;font-stretch:normal;text-align:justify;text-anchor:start;fill:#ffffff;font-family:Palatino LT Std;-inkscape-font-specification:Palatino LT Std" /></flowRoot>    <g
       transform="translate(474.80865,4.84375e-6)"
       id="g4172">
      <path
         d="m 100.875,1169.2812 c -16.62,0 -30,13.3801 -30,30 l 0,26.25 435.8125,0 0,-26.25 c 0,-16.6199 -13.38,-30 -30,-30 l -375.8125,0 z"
         id="path4134"
         style="color:#000000;fill:#000000;fill-opacity:1;stroke:none;stroke-width:1;marker:none;visibility:visible;display:inline;overflow:visible;enable-background:accumulate" />
      <path
         d="m 70.875,1225.5312 0,126.3438 c 0,16.62 13.38,30 30,30 l 375.8125,0 c 16.62,0 30,-13.38 30,-30 l 0,-126.3438 z"
         id="path4136"
         style="color:#000000;fill:#fafafa;fill-opacity:1;stroke:none;stroke-width:1;marker:none;visibility:visible;display:inline;overflow:visible;enable-background:accumulate" />
      <flowRoot
         transform="translate(-13.751732,744.50685)"
         id="flowRoot4138"
         xml:space="preserve"
         style="font-size:40px;font-style:normal;font-weight:normal;text-align:justify;line-height:125%;letter-spacing:0px;word-spacing:0px;text-anchor:start;fill:#000000;fill-opacity:1;stroke:none;font-family:Sans"><flowRegion
           id="flowRegion4140"><rect
             width="389.75806"
             height="235.30038"
             x="107.66199"
             y="497.23553"
             id="rect4142"
             style="text-align:justify;text-anchor:start" /></flowRegion><flowPara
           id="flowPara4144"
           style="font-size:20px;font-style:normal;font-variant:normal;font-weight:bold;font-stretch:normal;text-align:justify;text-anchor:start;font-family:Palatino LT Std;-inkscape-font-specification:Palatino LT Std">When: <flowSpan
   id="flowSpan4207"
   style="font-weight:normal">Fridays at 1pm during semester</flowSpan></flowPara><flowPara
           id="flowPara4148"
           style="font-size:20px;font-style:normal;font-variant:normal;font-weight:normal;font-stretch:normal;text-align:justify;text-anchor:start;font-family:Palatino LT Std;-inkscape-font-specification:Palatino LT Std"><flowSpan
   id="flowSpan4150"
   style="font-weight:bold">Where: </flowSpan>Broadway Tavern</flowPara><flowPara
           id="flowPara4152"
           style="font-size:20px;font-style:normal;font-variant:normal;font-weight:normal;font-stretch:normal;text-align:justify;text-anchor:start;font-family:Palatino LT Std;-inkscape-font-specification:Palatino LT Std"><flowSpan
   id="flowSpan4154"
   style="font-weight:bold">What: </flowSpan>Meet for meals and drinks at Broadway Tavern; 18+ only event.</flowPara><flowPara
           id="flowPara4156"
           style="font-size:30px;font-style:normal;font-variant:normal;font-weight:normal;font-stretch:normal;text-align:center;text-anchor:middle;font-family:Palatino LT Std;-inkscape-font-specification:Palatino LT Std">All are welcome!</flowPara><flowPara
           id="flowPara4158"
           style="font-size:20px;font-style:normal;font-variant:normal;font-weight:normal;font-stretch:normal;text-align:justify;text-anchor:start;font-family:Palatino LT Std;-inkscape-font-specification:Palatino LT Std" /></flowRoot>      <flowRoot
         transform="translate(-13.751732,688.1487)"
         id="flowRoot4160"
         xml:space="preserve"
         style="font-size:40px;font-style:normal;font-weight:normal;text-align:justify;line-height:125%;letter-spacing:0px;word-spacing:0px;text-anchor:start;fill:#ffffff;fill-opacity:1;stroke:none;font-family:Sans"><flowRegion
           id="flowRegion4162"><rect
             width="389.75806"
             height="235.30038"
             x="107.66199"
             y="497.23553"
             id="rect4164"
             style="text-align:justify;text-anchor:start;fill:#ffffff" /></flowRegion><flowPara
           id="flowPara4170"
           style="font-size:30px;font-style:normal;font-variant:normal;font-weight:600;font-stretch:normal;text-align:center;text-anchor:middle;fill:#ffffff;font-family:Palatino LT Std;-inkscape-font-specification:Palatino LT Std Semi-Bold">CSSC @ BoB's</flowPara></flowRoot>    </g>
  </g>
  <g
     id="layer3"
     style="display:inline">
    <rect
       width="910.62994"
       height="772.44098"
       rx="30"
       ry="30"
       x="70.866142"
       y="354.33069"
       id="rect3139"
       style="color:#000000;fill:#fafafa;fill-opacity:1;stroke:none;stroke-width:1;marker:none;visibility:visible;display:inline;overflow:visible;enable-background:accumulate" />
  </g>
  <g
     transform="translate(0,435.82692)"
     id="layer1"
     style="display:inline">
    <text
       x="411.13318"
       y="112.29851"
       id="text3880"
       xml:space="preserve"
       style="font-size:20px;font-style:normal;font-weight:normal;line-height:125%;letter-spacing:0px;word-spacing:0px;fill:#000000;fill-opacity:1;stroke:none;font-family:Sans"><tspan
         x="411.13318"
         y="112.29851"
         id="tspan3882" /></text>
    <g
       transform="matrix(0.5,0,0,0.5,0.00109863,-288.77773)"
       id="g3846">
      <rect
         width="1509.4489"
         height="526.0592"
         x="297.63556"
         y="-202.78423"
         id="rect3844"
         style="fill:#c02626;fill-opacity:1" />
      <path
         d="m 2499.9999,982.47565 a 654.28571,654.28571 0 1 1 -1308.5714,0 654.28571,654.28571 0 1 1 1308.5714,0 z"
         transform="matrix(1.6057309,0,0,0.34590553,-1911.3603,-279.59838)"
         id="path3819"
         style="fill:url(#radialGradient3058);fill-opacity:1;stroke:none" />
      <rect
         width="2104.72"
         height="224.40077"
         x="0"
         y="60.24538"
         id="rect3815"
         style="fill:#c02626;fill-opacity:1" />
      <g
         transform="matrix(3.4258187,0,0,3.4258187,-1845.2098,-1413.9374)"
         id="g3809">
        <path
           d="m 745.1875,387.375 a 7.50075,7.50075 0 0 0 -7.5,7.5 l 0,65 a 7.50075,7.50075 0 0 0 7.5,7.5 l 30.15625,0 a 7.50075,7.50075 0 1 0 0,-15 l -22.65625,0 0,-50 22.65625,0 a 7.50075,7.50075 0 1 0 0,-15 l -30.15625,0 z"
           id="path3795"
           style="font-size:medium;font-style:normal;font-variant:normal;font-weight:normal;font-stretch:normal;text-indent:0;text-align:start;text-decoration:none;line-height:normal;letter-spacing:normal;word-spacing:normal;text-transform:none;direction:ltr;block-progression:tb;writing-mode:lr-tb;text-anchor:start;baseline-shift:baseline;color:#000000;fill:#ffffff;fill-opacity:1;stroke:none;stroke-width:15;marker:none;visibility:visible;display:inline;overflow:visible;enable-background:accumulate;font-family:Sans;-inkscape-font-specification:Sans" />
        <path
           d="m 802.1875,387.375 a 7.50075,7.50075 0 0 0 -7.5,7.5 l 0,32.5 a 7.50075,7.50075 0 0 0 7.5,7.5 l 22.6875,0 0,17.5 -22.6875,0 a 7.50075,7.50075 0 1 0 0,15 l 30.1875,0 a 7.50075,7.50075 0 0 0 7.5,-7.5 l 0,-32.5 a 7.50075,7.50075 0 0 0 -7.5,-7.5 l -22.6875,0 0,-17.5 22.6875,0 a 7.50075,7.50075 0 1 0 0,-15 l -30.1875,0 z"
           id="path3801"
           style="font-size:medium;font-style:normal;font-variant:normal;font-weight:normal;font-stretch:normal;text-indent:0;text-align:start;text-decoration:none;line-height:normal;letter-spacing:normal;word-spacing:normal;text-transform:none;direction:ltr;block-progression:tb;writing-mode:lr-tb;text-anchor:start;baseline-shift:baseline;color:#000000;fill:#ffffff;fill-opacity:1;stroke:none;stroke-width:15;marker:none;visibility:visible;display:inline;overflow:visible;enable-background:accumulate;font-family:Sans;-inkscape-font-specification:Sans" />
        <path
           d="m 859.21875,387 a 7.50075,7.50075 0 0 0 -7.5,7.5 l 0,32.5 a 7.50075,7.50075 0 0 0 7.5,7.5 l 22.6875,0 0,17.5 -22.6875,0 a 7.50075,7.50075 0 1 0 0,15 l 30.1875,0 a 7.50075,7.50075 0 0 0 7.5,-7.5 l 0,-32.5 a 7.50075,7.50075 0 0 0 -7.5,-7.5 l -22.6875,0 0,-17.5 22.6875,0 a 7.50075,7.50075 0 1 0 0,-15 l -30.1875,0 z"
           id="path3805"
           style="font-size:medium;font-style:normal;font-variant:normal;font-weight:normal;font-stretch:normal;text-indent:0;text-align:start;text-decoration:none;line-height:normal;letter-spacing:normal;word-spacing:normal;text-transform:none;direction:ltr;block-progression:tb;writing-mode:lr-tb;text-anchor:start;baseline-shift:baseline;color:#000000;fill:#ffffff;fill-opacity:1;stroke:none;stroke-width:15;marker:none;visibility:visible;display:inline;overflow:visible;enable-background:accumulate;font-family:Sans;-inkscape-font-specification:Sans" />
        <path
           d="m 916.25,387.375 a 7.50075,7.50075 0 0 0 -7.5,7.5 l 0,65 a 7.50075,7.50075 0 0 0 7.5,7.5 l 30.1875,0 a 7.50075,7.50075 0 1 0 0,-15 l -22.6875,0 0,-50 22.6875,0 a 7.50075,7.50075 0 1 0 0,-15 l -30.1875,0 z"
           id="path3807"
           style="font-size:medium;font-style:normal;font-variant:normal;font-weight:normal;font-stretch:normal;text-indent:0;text-align:start;text-decoration:none;line-height:normal;letter-spacing:normal;word-spacing:normal;text-transform:none;direction:ltr;block-progression:tb;writing-mode:lr-tb;text-anchor:start;baseline-shift:baseline;color:#000000;fill:#ffffff;fill-opacity:1;stroke:none;stroke-width:15;marker:none;visibility:visible;display:inline;overflow:visible;enable-background:accumulate;font-family:Sans;-inkscape-font-specification:Sans" />
      </g>
      <path
         d="m 2499.9999,982.47565 a 654.28571,654.28571 0 1 1 -1308.5714,0 654.28571,654.28571 0 1 1 1308.5714,0 z"
         transform="matrix(0.82323564,0,0,0.15937545,-467.09776,28.575325)"
         id="path3837"
         style="fill:url(#radialGradient3117);fill-opacity:1;stroke:none" />
      <text
         x="687.5238"
         y="260.57318"
         id="text3011"
         xml:space="preserve"
         style="font-size:50.16439056px;font-style:normal;font-weight:normal;line-height:125%;letter-spacing:0px;word-spacing:0px;fill:#ffffff;fill-opacity:1;stroke:none;font-family:Sans"><tspan
           x="687.5238"
           y="260.57318"
           id="tspan3013"
           style="font-style:normal;font-variant:normal;font-weight:normal;font-stretch:normal;fill:#ffffff;font-family:Palatino LT Std;-inkscape-font-specification:Palatino LT Std">Computer Science Students Club</tspan></text>
    </g>
  </g>
</svg>
