<?xml version="1.0" encoding="UTF-8" standalone="no"?>
<!-- Created with Inkscape (http://www.inkscape.org/) -->

<svg
   xmlns:osb="http://www.openswatchbook.org/uri/2009/osb"
   xmlns:dc="http://purl.org/dc/elements/1.1/"
   xmlns:cc="http://creativecommons.org/ns#"
   xmlns:rdf="http://www.w3.org/1999/02/22-rdf-syntax-ns#"
   xmlns:svg="http://www.w3.org/2000/svg"
   xmlns="http://www.w3.org/2000/svg"
   xmlns:xlink="http://www.w3.org/1999/xlink"
   xmlns:sodipodi="http://sodipodi.sourceforge.net/DTD/sodipodi-0.dtd"
   xmlns:inkscape="http://www.inkscape.org/namespaces/inkscape"
   width="1052.3622"
   height="1488.189"
   id="svg2"
   version="1.1"
   inkscape:version="0.48.2 r9819"
   sodipodi:docname="cssc-fridge.svg">
  <defs
     id="defs4">
    <linearGradient
       id="linearGradient5315"
       osb:paint="solid">
      <stop
         style="stop-color:#000000;stop-opacity:1;"
         offset="0"
         id="stop5317" />
    </linearGradient>
    <linearGradient
       id="linearGradient3829">
      <stop
         style="stop-color:#ffffff;stop-opacity:0.14615385;"
         offset="0"
         id="stop3831" />
      <stop
         style="stop-color:#ffffff;stop-opacity:0;"
         offset="1"
         id="stop3833" />
    </linearGradient>
    <radialGradient
       inkscape:collect="always"
       xlink:href="#linearGradient3829"
       id="radialGradient3860"
       gradientUnits="userSpaceOnUse"
       cx="1845.7142"
       cy="982.47565"
       fx="1845.7142"
       fy="982.47565"
       r="661.78571" />
    <radialGradient
       inkscape:collect="always"
       xlink:href="#linearGradient3829"
       id="radialGradient3874"
       gradientUnits="userSpaceOnUse"
       cx="1845.7142"
       cy="982.47565"
       fx="1845.7142"
       fy="982.47565"
       r="661.78571" />
    <radialGradient
       inkscape:collect="always"
       xlink:href="#linearGradient3829"
       id="radialGradient3850"
       gradientUnits="userSpaceOnUse"
       cx="1845.7142"
       cy="982.47565"
       fx="1845.7142"
       fy="982.47565"
       r="661.78571" />
    <radialGradient
       inkscape:collect="always"
       xlink:href="#linearGradient3829"
       id="radialGradient3852"
       gradientUnits="userSpaceOnUse"
       cx="1845.7142"
       cy="982.47565"
       fx="1845.7142"
       fy="982.47565"
       r="661.78571" />
    <radialGradient
       inkscape:collect="always"
       xlink:href="#linearGradient3829"
       id="radialGradient4049"
       gradientUnits="userSpaceOnUse"
       cx="1845.7142"
       cy="982.47565"
       fx="1845.7142"
       fy="982.47565"
       r="661.78571" />
    <radialGradient
       inkscape:collect="always"
       xlink:href="#linearGradient3829"
       id="radialGradient4051"
       gradientUnits="userSpaceOnUse"
       cx="1845.7142"
       cy="982.47565"
       fx="1845.7142"
       fy="982.47565"
       r="661.78571" />
    <path
       style="fill:none;stroke:none;display:inline"
       id="path3862"
       transform="matrix(1.0670638,0,0,2.2282755,-131.57696,-845.90422)"
       d="m 136.84375,605.9415 c 22.49443,4.7723 45.39639,6.85144 68.34375,8.09375 92.60775,6.30859 185.23938,-2.26305 277.72261,-6.5431 34.42488,-0.5085 69.41647,-4.27065 103.40239,2.6056 6.59997,2.13723 15.11694,2.25757 20.15625,7.5625"
       inkscape:connector-curvature="0" />
    <path
       style="fill:none;stroke:none;display:inline"
       id="path3862-1"
       transform="matrix(1.0670638,0,0,2.2282755,-131.57696,-845.90422)"
       d="m 136.84375,605.9415 c 22.49443,4.7723 45.39639,6.85144 68.34375,8.09375 92.60775,6.30859 185.23938,-2.26305 277.72261,-6.5431 34.42488,-0.5085 69.41647,-4.27065 103.40239,2.6056 6.59997,2.13723 15.11694,2.25757 20.15625,7.5625"
       inkscape:connector-curvature="0" />
    <radialGradient
       inkscape:collect="always"
       xlink:href="#linearGradient3829"
       id="radialGradient4344"
       gradientUnits="userSpaceOnUse"
       cx="1845.7142"
       cy="982.47565"
       fx="1845.7142"
       fy="982.47565"
       r="661.78571" />
    <radialGradient
       inkscape:collect="always"
       xlink:href="#linearGradient3829"
       id="radialGradient4346"
       gradientUnits="userSpaceOnUse"
       cx="1845.7142"
       cy="982.47565"
       fx="1845.7142"
       fy="982.47565"
       r="661.78571" />
    <radialGradient
       inkscape:collect="always"
       xlink:href="#linearGradient3829"
       id="radialGradient3027"
       gradientUnits="userSpaceOnUse"
       cx="1845.7142"
       cy="982.47565"
       fx="1845.7142"
       fy="982.47565"
       r="661.78571" />
    <radialGradient
       inkscape:collect="always"
       xlink:href="#linearGradient3829"
       id="radialGradient3029"
       gradientUnits="userSpaceOnUse"
       cx="1845.7142"
       cy="982.47565"
       fx="1845.7142"
       fy="982.47565"
       r="661.78571" />
    <radialGradient
       inkscape:collect="always"
       xlink:href="#linearGradient3829"
       id="radialGradient3058"
       gradientUnits="userSpaceOnUse"
       cx="1845.7142"
       cy="982.47565"
       fx="1845.7142"
       fy="982.47565"
       r="661.78571" />
    <radialGradient
       inkscape:collect="always"
       xlink:href="#linearGradient3829"
       id="radialGradient3060"
       gradientUnits="userSpaceOnUse"
       cx="1845.7142"
       cy="982.47565"
       fx="1845.7142"
       fy="982.47565"
       r="661.78571" />
    <radialGradient
       inkscape:collect="always"
       xlink:href="#linearGradient3829"
       id="radialGradient3104"
       gradientUnits="userSpaceOnUse"
       cx="1845.7142"
       cy="982.47565"
       fx="1845.7142"
       fy="982.47565"
       r="661.78571" />
    <radialGradient
       inkscape:collect="always"
       xlink:href="#linearGradient3829"
       id="radialGradient3106"
       gradientUnits="userSpaceOnUse"
       cx="1845.7142"
       cy="982.47565"
       fx="1845.7142"
       fy="982.47565"
       r="661.78571" />
    <radialGradient
       inkscape:collect="always"
       xlink:href="#linearGradient3829"
       id="radialGradient3117"
       gradientUnits="userSpaceOnUse"
       cx="1845.7142"
       cy="982.47565"
       fx="1845.7142"
       fy="982.47565"
       r="661.78571" />
    <clipPath
       clipPathUnits="userSpaceOnUse"
       id="clipPath5341">
      <rect
         style="color:#000000;fill:#000000;fill-opacity:1;stroke:none;stroke-width:1;marker:none;visibility:visible;display:inline;overflow:visible;enable-background:accumulate"
         id="rect5343"
         width="435.37"
         height="326.52802"
         x="521.32281"
         y="740.27954"
         rx="30"
         ry="30" />
    </clipPath>
    <clipPath
       id="clipPath6037"
       clipPathUnits="userSpaceOnUse">
      <path
         id="path6039"
         clip-rule="evenodd"
         d="m 0,0.1 595.2,0 0,841.8 L 0,841.9 0,0.1 z" />
    </clipPath>
    <filter
       inkscape:collect="always"
       id="filter7606">
      <feGaussianBlur
         inkscape:collect="always"
         stdDeviation="24.227361"
         id="feGaussianBlur7608" />
    </filter>
  </defs>
  <sodipodi:namedview
     id="base"
     pagecolor="#ffffff"
     bordercolor="#666666"
     borderopacity="1.0"
     inkscape:pageopacity="0.0"
     inkscape:pageshadow="2"
     inkscape:zoom="0.5"
     inkscape:cx="-106.82425"
     inkscape:cy="738.06183"
     inkscape:document-units="px"
     inkscape:current-layer="layer1"
     showgrid="true"
     width="2104.72px"
     inkscape:window-width="1920"
     inkscape:window-height="1056"
     inkscape:window-x="0"
     inkscape:window-y="24"
     inkscape:window-maximized="1"
     units="mm"
     showguides="true"
     inkscape:guide-bbox="true">
    <inkscape:grid
       type="xygrid"
       id="grid3106"
       empspacing="10"
       visible="false"
       enabled="true"
       snapvisiblegridlinesonly="false"
       units="cm"
       spacingx="0.1cm"
       spacingy="0.3cm"
       dotted="false"
       color="#ffffff"
       opacity="0.1254902"
       empcolor="#ffffff"
       empopacity="0.25098039" />
  </sodipodi:namedview>
  <metadata
     id="metadata7">
    <rdf:RDF>
      <cc:Work
         rdf:about="">
        <dc:format>image/svg+xml</dc:format>
        <dc:type
           rdf:resource="http://purl.org/dc/dcmitype/StillImage" />
        <dc:title></dc:title>
      </cc:Work>
    </rdf:RDF>
  </metadata>
  <g
     inkscape:groupmode="layer"
     id="layer2"
     inkscape:label="Background"
     sodipodi:insensitive="true">
    <rect
       style="fill:#c02626;fill-opacity:1"
       id="rect2996"
       width="1052.36"
       height="1488.1899"
       x="0.00109863"
       y="-0.00053515623" />
  </g>
  <g
     inkscape:groupmode="layer"
     id="layer8"
     inkscape:label="Shadows"
     sodipodi:insensitive="true"
     style="display:inline">
    <rect
       style="opacity:0.5;color:#000000;fill:#000000;fill-opacity:1;stroke:none;stroke-width:1;marker:none;visibility:visible;display:inline;overflow:visible;filter:url(#filter7606);enable-background:accumulate"
       id="rect3139-7"
       width="910.62994"
       height="1027.559"
       x="76.866142"
       y="360.33066"
       rx="30"
       ry="30" />
  </g>
  <g
     inkscape:groupmode="layer"
     id="layer7"
     inkscape:label="Web"
     sodipodi:insensitive="true"
     style="display:inline">
    <g
       id="g3085"
       transform="translate(112.4053,-1.5624983e-7)">
      <text
         xml:space="preserve"
         style="font-size:40px;font-style:normal;font-weight:normal;line-height:125%;letter-spacing:0px;word-spacing:0px;fill:#ffffff;fill-opacity:1;stroke:none;font-family:Sans"
         x="471.87491"
         y="1451.7228"
         id="text4018"
         sodipodi:linespacing="125%"><tspan
           sodipodi:role="line"
           id="tspan4020"
           x="471.87491"
           y="1451.7228"
           style="font-size:30px;font-style:normal;font-variant:normal;font-weight:normal;font-stretch:normal;font-family:Palatino LT Std;-inkscape-font-specification:Palatino LT Std">www.facebook.com/cssc.uwa</tspan></text>
      <path
         style="fill:#ffffff"
         inkscape:connector-curvature="0"
         id="Facebook__x28_alt_x29_"
         d="m 452.05491,1427.6497 c 0,-3.9249 -3.54342,-7.4698 -7.46928,-7.4698 h -29.8771 c -3.92586,0 -7.46928,3.5449 -7.46928,7.4698 v 29.8761 c 0,3.9249 3.54342,7.4698 7.46977,7.4698 h 14.93806 v -16.9303 h -5.47747 v -7.4693 h 5.47747 v -2.9101 c 0,-5.0188 3.769,-9.5387 8.40294,-9.5387 h 6.03766 v 7.4692 h -6.03766 c -0.66079,0 -1.43161,0.8022 -1.43161,2.0038 v 2.9758 h 7.46927 v 7.4693 h -7.46927 v 16.9303 h 7.96722 c 3.92586,0 7.46928,-3.5449 7.46928,-7.4698 v -29.8761 z" />
    </g>
    <g
       id="g3090"
       transform="translate(44.884516,-1.5624983e-7)">
      <text
         sodipodi:linespacing="125%"
         id="text4014"
         y="1451.7228"
         x="90.626144"
         style="font-size:40px;font-style:normal;font-weight:normal;line-height:125%;letter-spacing:0px;word-spacing:0px;fill:#ffffff;fill-opacity:1;stroke:none;font-family:Sans"
         xml:space="preserve"><tspan
           style="font-size:30px;font-style:normal;font-variant:normal;font-weight:normal;font-stretch:normal;font-family:Palatino LT Std;-inkscape-font-specification:Palatino LT Std"
           y="1451.7228"
           x="90.626144"
           id="tspan4016"
           sodipodi:role="line">www.cssc.asn.au</tspan></text>
      <path
         style="fill:#ffffff"
         inkscape:connector-curvature="0"
         id="W3"
         d="m 42.591204,1428.3066 5.94454,20.2681 5.94605,-20.2681 h 4.30379 10.211 v 2.0784 l -5.26683,10.4829 c 2.12974,0.6872 4.14395,1.937 5.23746,3.7426 1.093,1.809 1.83893,3.9348 1.83893,6.3733 0,3.0156 -0.70012,5.5477 -2.30004,7.6042 -1.59793,2.0536 -3.61712,3.0813 -6.16016,3.0813 -1.91413,0 -3.55289,-0.6105 -4.97553,-1.828 -1.42166,-1.2204 -2.45889,-2.8702 -3.14158,-4.9556 l 3.36516,-1.3957 c 0.49297,1.2613 1.14479,2.2522 1.95296,2.9802 0.8042,0.726 1.75528,1.086 2.84879,1.086 1.14877,0 2.12127,-0.6428 2.91301,-1.9295 0.79175,-1.2902 1.18961,-2.8374 1.18961,-4.6469 0,-1.9993 -0.42674,-4.1569 -1.27227,-5.2504 -0.98345,-1.2907 -2.5286,-2.5401 -4.63344,-2.5401 h -2.83036 v -0.7598 l 6.9295,-10.4027 h -6.9275 l -0.39388,0.032 -8.42535,27.8734 h -0.40932 l -6.15169,-20.6386 -6.14672,20.6391 h -0.41131 l -9.83554,-31.6264 h 4.3028 l 5.94455,20.3005 4.01648,-13.6678 -1.96791,-6.6327 h 4.3048 z" />
    </g>
  </g>
  <g
     inkscape:groupmode="layer"
     id="layer3"
     inkscape:label="About"
     style="display:inline"
     sodipodi:insensitive="true">
    <rect
       style="color:#000000;fill:#fafafa;fill-opacity:1;stroke:none;stroke-width:1;marker:none;visibility:visible;display:inline;overflow:visible;enable-background:accumulate"
       id="rect3139"
       width="910.62994"
       height="1027.559"
       x="70.866142"
       y="354.33069"
       rx="30"
       ry="30" />
    <g
       id="g6942"
       transform="matrix(1.1674643,0,0,1.1674643,-88.15121,-68.02741)">
      <g
         transform="matrix(1.5336052,0,0,-1.5336052,82.0644,1646.7968)"
         id="g6041">
        <text
           id="text6043"
           transform="matrix(1,0,0,-1,294.8,764.3)">
          <tspan
             id="tspan6045"
             sodipodi:role="line"
             y="0"
             x="0 14.19 21.375 34.575001 42.869999 50.055 55.950001"
             style="font-size:15px;font-variant:normal;font-weight:bold;writing-mode:lr-tb;fill:#000000;fill-opacity:1;fill-rule:nonzero;stroke:none;font-family:Palatino LT Std;-inkscape-font-specification:PalatinoLTStdRoman">Members</tspan>
        </text>
      </g>
      <g
         transform="matrix(1.5336052,0,0,-1.5336052,82.0644,1646.7968)"
         id="g6047">
        <text
           id="text6049"
           transform="matrix(1,0,0,-1,419.4,764.3)">
          <tspan
             id="tspan6051"
             sodipodi:role="line"
             y="0"
             x="0 12.405 20.594999 29.295 34.380001 48.48 55.665001 68.864998 77.160004 84.345001 90.239998"
             style="font-size:15px;font-variant:normal;font-weight:bold;writing-mode:lr-tb;fill:#000000;fill-opacity:1;fill-rule:nonzero;stroke:none;font-family:Palatino LT Std;-inkscape-font-specification:PalatinoLTStdRoman">Non-Members</tspan>
        </text>
      </g>
      <g
         transform="matrix(1.5336052,0,0,-1.5336052,82.0644,1646.7968)"
         id="g6053">
        <text
           id="text6055"
           transform="matrix(1,0,0,-1,63.9,731.9)">
          <tspan
             id="tspan6057"
             sodipodi:role="line"
             y="0"
             x="0 7.8000002 15.99 20.985001 25.875 29.655001 38.834999 44.639999 49.02 57.810001"
             style="font-size:15px;font-variant:normal;font-weight:bold;writing-mode:lr-tb;fill:#000000;fill-opacity:1;fill-rule:nonzero;stroke:none;font-family:Palatino LT Std;-inkscape-font-specification:PalatinoLTStdRoman">Soft drink</tspan>
        </text>
      </g>
      <g
         transform="matrix(1.5336052,0,0,-1.5336052,82.0644,1646.7968)"
         id="g6059">
        <text
           id="text6061"
           transform="matrix(1,0,0,-1,309.1,731.9)">
          <tspan
             id="tspan6063"
             sodipodi:role="line"
             y="0"
             x="0 7.5 15 18.780001 26.280001"
             style="font-size:15px;font-variant:normal;font-weight:normal;writing-mode:lr-tb;fill:#000000;fill-opacity:1;fill-rule:nonzero;stroke:none;font-family:Palatino LT Std;-inkscape-font-specification:PalatinoLTStdRoman">$1.00</tspan>
        </text>
      </g>
      <g
         transform="matrix(1.5336052,0,0,-1.5336052,82.0644,1646.7968)"
         id="g6065">
        <text
           id="text6067"
           transform="matrix(1,0,0,-1,450.9,731.9)">
          <tspan
             id="tspan6069"
             sodipodi:role="line"
             y="0"
             x="0 7.5 14.895 18.674999 26.174999"
             style="font-size:15px;font-variant:normal;font-weight:normal;writing-mode:lr-tb;fill:#000000;fill-opacity:1;fill-rule:nonzero;stroke:none;font-family:Palatino LT Std;-inkscape-font-specification:PalatinoLTStdRoman">$1.50</tspan>
        </text>
      </g>
      <g
         transform="matrix(1.5336052,0,0,-1.5336052,82.0644,1646.7968)"
         id="g6071">
        <text
           id="text6073"
           transform="matrix(1,0,0,-1,63.9,699.6)">
          <tspan
             id="tspan6075"
             sodipodi:role="line"
             y="0"
             x="0 9.1800003 17.879999 25.065001 30.959999 39.255001 47.639999 51.345001 60.525002 66.419998 70.800003 79.5"
             style="font-size:15px;font-variant:normal;font-weight:bold;writing-mode:lr-tb;fill:#000000;fill-opacity:1;fill-rule:nonzero;stroke:none;font-family:Palatino LT Std;-inkscape-font-specification:PalatinoLTStdRoman">Energy drink</tspan>
        </text>
      </g>
      <g
         transform="matrix(1.5336052,0,0,-1.5336052,82.0644,1646.7968)"
         id="g6077">
        <text
           id="text6079"
           transform="matrix(1,0,0,-1,309.1,699.6)">
          <tspan
             id="tspan6081"
             sodipodi:role="line"
             y="0"
             x="0 7.5 15 18.780001 26.280001"
             style="font-size:15px;font-variant:normal;font-weight:normal;writing-mode:lr-tb;fill:#000000;fill-opacity:1;fill-rule:nonzero;stroke:none;font-family:Palatino LT Std;-inkscape-font-specification:PalatinoLTStdRoman">$2.50</tspan>
        </text>
      </g>
      <g
         transform="matrix(1.5336052,0,0,-1.5336052,82.0644,1646.7968)"
         id="g6083">
        <text
           id="text6085"
           transform="matrix(1,0,0,-1,450.9,699.6)">
          <tspan
             id="tspan6087"
             sodipodi:role="line"
             y="0"
             x="0 7.5 14.895 18.674999 26.174999"
             style="font-size:15px;font-variant:normal;font-weight:normal;writing-mode:lr-tb;fill:#000000;fill-opacity:1;fill-rule:nonzero;stroke:none;font-family:Palatino LT Std;-inkscape-font-specification:PalatinoLTStdRoman">$3.00</tspan>
        </text>
      </g>
      <g
         transform="matrix(1.5336052,0,0,-1.5336052,82.0644,1646.7968)"
         id="g6089">
        <text
           id="text6091"
           transform="matrix(1,0,0,-1,63.9,667.2)">
          <tspan
             id="tspan6093"
             sodipodi:role="line"
             y="0"
             x="0 4.9949999 13.995 18.299999 24.99"
             style="font-size:15px;font-variant:normal;font-weight:bold;writing-mode:lr-tb;fill:#000000;fill-opacity:1;fill-rule:nonzero;stroke:none;font-family:Palatino LT Std;-inkscape-font-specification:PalatinoLTStdRoman">Juice</tspan>
        </text>
      </g>
      <g
         transform="matrix(1.5336052,0,0,-1.5336052,82.0644,1646.7968)"
         id="g6095">
        <text
           id="text6097"
           transform="matrix(1,0,0,-1,309.1,667.2)">
          <tspan
             id="tspan6099"
             sodipodi:role="line"
             y="0"
             x="0 7.5 15 18.780001 26.280001"
             style="font-size:15px;font-variant:normal;font-weight:normal;writing-mode:lr-tb;fill:#000000;fill-opacity:1;fill-rule:nonzero;stroke:none;font-family:Palatino LT Std;-inkscape-font-specification:PalatinoLTStdRoman">$2.00</tspan>
        </text>
      </g>
      <g
         transform="matrix(1.5336052,0,0,-1.5336052,82.0644,1646.7968)"
         id="g6101">
        <text
           id="text6103"
           transform="matrix(1,0,0,-1,450.9,667.2)">
          <tspan
             id="tspan6105"
             sodipodi:role="line"
             y="0"
             x="0 7.5 14.895 18.674999 26.174999"
             style="font-size:15px;font-variant:normal;font-weight:normal;writing-mode:lr-tb;fill:#000000;fill-opacity:1;fill-rule:nonzero;stroke:none;font-family:Palatino LT Std;-inkscape-font-specification:PalatinoLTStdRoman">$2.50</tspan>
        </text>
      </g>
      <g
         transform="matrix(1.5336052,0,0,-1.5336052,82.0644,1646.7968)"
         id="g6107">
        <text
           id="text6109"
           transform="matrix(1,0,0,-1,63.9,634.9)">
          <tspan
             id="tspan6111"
             sodipodi:role="line"
             y="0"
             x="0 9 13.38 20.475"
             style="font-size:15px;font-variant:normal;font-weight:bold;writing-mode:lr-tb;fill:#000000;fill-opacity:1;fill-rule:nonzero;stroke:none;font-family:Palatino LT Std;-inkscape-font-specification:PalatinoLTStdRoman">Pies</tspan>
        </text>
      </g>
      <g
         transform="matrix(1.5336052,0,0,-1.5336052,82.0644,1646.7968)"
         id="g6113">
        <text
           id="text6115"
           transform="matrix(1,0,0,-1,309.1,634.9)">
          <tspan
             id="tspan6117"
             sodipodi:role="line"
             y="0"
             x="0 7.5 15 18.780001 26.280001"
             style="font-size:15px;font-variant:normal;font-weight:normal;writing-mode:lr-tb;fill:#000000;fill-opacity:1;fill-rule:nonzero;stroke:none;font-family:Palatino LT Std;-inkscape-font-specification:PalatinoLTStdRoman">$2.00</tspan>
        </text>
      </g>
      <g
         transform="matrix(1.5336052,0,0,-1.5336052,82.0644,1646.7968)"
         id="g6119">
        <text
           id="text6121"
           transform="matrix(1,0,0,-1,450.9,634.9)">
          <tspan
             id="tspan6123"
             sodipodi:role="line"
             y="0"
             x="0 7.5 14.895 18.674999 26.174999"
             style="font-size:15px;font-variant:normal;font-weight:normal;writing-mode:lr-tb;fill:#000000;fill-opacity:1;fill-rule:nonzero;stroke:none;font-family:Palatino LT Std;-inkscape-font-specification:PalatinoLTStdRoman">$2.50</tspan>
        </text>
      </g>
      <g
         transform="matrix(1.5336052,0,0,-1.5336052,82.0644,1646.7968)"
         id="g6125">
        <text
           id="text6127"
           transform="matrix(1,0,0,-1,63.9,602.5)">
          <tspan
             id="tspan6129"
             sodipodi:role="line"
             y="0"
             x="0 7.8899999 15.39 24.389999 30.780001 38.279999 46.575001 53.759998 57.465 63.360001 71.550003 75.93 80.235001"
             style="font-size:15px;font-variant:normal;font-weight:bold;writing-mode:lr-tb;fill:#000000;fill-opacity:1;fill-rule:nonzero;stroke:none;font-family:Palatino LT Std;-inkscape-font-specification:PalatinoLTStdRoman">Sausage rolls</tspan>
        </text>
      </g>
      <g
         transform="matrix(1.5336052,0,0,-1.5336052,82.0644,1646.7968)"
         id="g6131">
        <text
           id="text6133"
           transform="matrix(1,0,0,-1,309.1,602.5)">
          <tspan
             id="tspan6135"
             sodipodi:role="line"
             y="0"
             x="0 7.5 15 18.780001 26.280001"
             style="font-size:15px;font-variant:normal;font-weight:normal;writing-mode:lr-tb;fill:#000000;fill-opacity:1;fill-rule:nonzero;stroke:none;font-family:Palatino LT Std;-inkscape-font-specification:PalatinoLTStdRoman">$1.50</tspan>
        </text>
      </g>
      <g
         transform="matrix(1.5336052,0,0,-1.5336052,82.0644,1646.7968)"
         id="g6137">
        <text
           id="text6139"
           transform="matrix(1,0,0,-1,450.9,602.5)">
          <tspan
             id="tspan6141"
             sodipodi:role="line"
             y="0"
             x="0 7.5 14.895 18.674999 26.174999"
             style="font-size:15px;font-variant:normal;font-weight:normal;writing-mode:lr-tb;fill:#000000;fill-opacity:1;fill-rule:nonzero;stroke:none;font-family:Palatino LT Std;-inkscape-font-specification:PalatinoLTStdRoman">$2.00</tspan>
        </text>
      </g>
      <g
         transform="matrix(1.5336052,0,0,-1.5336052,82.0644,1646.7968)"
         id="g6143">
        <text
           id="text6145"
           transform="matrix(1,0,0,-1,63.9,570.2)">
          <tspan
             id="tspan6147"
             sodipodi:role="line"
             y="0"
             x="0 12.405 20.594999 28.785 37.965 42.27 49.455002"
             style="font-size:15px;font-variant:normal;font-weight:bold;writing-mode:lr-tb;fill:#000000;fill-opacity:1;fill-rule:nonzero;stroke:none;font-family:Palatino LT Std;-inkscape-font-specification:PalatinoLTStdRoman">Noodles</tspan>
        </text>
      </g>
      <g
         transform="matrix(1.5336052,0,0,-1.5336052,82.0644,1646.7968)"
         id="g6149">
        <text
           id="text6151"
           transform="matrix(1,0,0,-1,309.1,570.2)">
          <tspan
             id="tspan6153"
             sodipodi:role="line"
             y="0"
             x="0 7.5 15 18.780001 26.280001"
             style="font-size:15px;font-variant:normal;font-weight:normal;writing-mode:lr-tb;fill:#000000;fill-opacity:1;fill-rule:nonzero;stroke:none;font-family:Palatino LT Std;-inkscape-font-specification:PalatinoLTStdRoman">$2.00</tspan>
        </text>
      </g>
      <g
         transform="matrix(1.5336052,0,0,-1.5336052,82.0644,1646.7968)"
         id="g6155">
        <text
           id="text6157"
           transform="matrix(1,0,0,-1,450.9,570.2)">
          <tspan
             id="tspan6159"
             sodipodi:role="line"
             y="0"
             x="0 7.5 14.895 18.674999 26.174999"
             style="font-size:15px;font-variant:normal;font-weight:normal;writing-mode:lr-tb;fill:#000000;fill-opacity:1;fill-rule:nonzero;stroke:none;font-family:Palatino LT Std;-inkscape-font-specification:PalatinoLTStdRoman">$2.50</tspan>
        </text>
      </g>
      <g
         transform="matrix(1.5336052,0,0,-1.5336052,82.0644,1646.7968)"
         id="g6161">
        <text
           id="text6163"
           transform="matrix(1,0,0,-1,63.9,537.8)">
          <tspan
             id="tspan6165"
             sodipodi:role="line"
             y="0"
             x="0 10.605 19.305 23.684999 32.685001"
             style="font-size:15px;font-variant:normal;font-weight:bold;writing-mode:lr-tb;fill:#000000;fill-opacity:1;fill-rule:nonzero;stroke:none;font-family:Palatino LT Std;-inkscape-font-specification:PalatinoLTStdRoman">Chips</tspan>
        </text>
      </g>
      <g
         transform="matrix(1.5336052,0,0,-1.5336052,82.0644,1646.7968)"
         id="g6167">
        <text
           id="text6169"
           transform="matrix(1,0,0,-1,309.1,537.8)">
          <tspan
             id="tspan6171"
             sodipodi:role="line"
             y="0"
             x="0 7.5 15 18.780001 26.280001"
             style="font-size:15px;font-variant:normal;font-weight:normal;writing-mode:lr-tb;fill:#000000;fill-opacity:1;fill-rule:nonzero;stroke:none;font-family:Palatino LT Std;-inkscape-font-specification:PalatinoLTStdRoman">$0.50</tspan>
        </text>
      </g>
      <g
         transform="matrix(1.5336052,0,0,-1.5336052,82.0644,1646.7968)"
         id="g6173">
        <text
           id="text6175"
           transform="matrix(1,0,0,-1,450.9,537.8)">
          <tspan
             id="tspan6177"
             sodipodi:role="line"
             y="0"
             x="0 7.5 14.895 18.674999 26.174999"
             style="font-size:15px;font-variant:normal;font-weight:normal;writing-mode:lr-tb;fill:#000000;fill-opacity:1;fill-rule:nonzero;stroke:none;font-family:Palatino LT Std;-inkscape-font-specification:PalatinoLTStdRoman">$1.00</tspan>
        </text>
      </g>
      <g
         transform="matrix(1.5336052,0,0,-1.5336052,82.0644,1646.7968)"
         id="g6179">
        <text
           id="text6181"
           transform="matrix(1,0,0,-1,63.9,505.5)">
          <tspan
             id="tspan6183"
             sodipodi:role="line"
             y="0"
             x="0 14.19 21.690001 29.985001 38.685001 47.775002 60.974998"
             style="font-size:15px;font-variant:normal;font-weight:bold;writing-mode:lr-tb;fill:#000000;fill-opacity:1;fill-rule:nonzero;stroke:none;font-family:Palatino LT Std;-inkscape-font-specification:PalatinoLTStdRoman">Magnums</tspan>
        </text>
      </g>
      <g
         transform="matrix(1.5336052,0,0,-1.5336052,82.0644,1646.7968)"
         id="g6185">
        <text
           id="text6187"
           transform="matrix(1,0,0,-1,309.1,505.5)">
          <tspan
             id="tspan6189"
             sodipodi:role="line"
             y="0"
             x="0 7.5 15 18.780001 26.280001"
             style="font-size:15px;font-variant:normal;font-weight:normal;writing-mode:lr-tb;fill:#000000;fill-opacity:1;fill-rule:nonzero;stroke:none;font-family:Palatino LT Std;-inkscape-font-specification:PalatinoLTStdRoman">$2.00</tspan>
        </text>
      </g>
      <g
         transform="matrix(1.5336052,0,0,-1.5336052,82.0644,1646.7968)"
         id="g6191">
        <text
           id="text6193"
           transform="matrix(1,0,0,-1,450.9,505.5)">
          <tspan
             id="tspan6195"
             sodipodi:role="line"
             y="0"
             x="0 7.5 14.895 18.674999 26.174999"
             style="font-size:15px;font-variant:normal;font-weight:normal;writing-mode:lr-tb;fill:#000000;fill-opacity:1;fill-rule:nonzero;stroke:none;font-family:Palatino LT Std;-inkscape-font-specification:PalatinoLTStdRoman">$2.50</tspan>
        </text>
      </g>
      <g
         transform="matrix(1.5336052,0,0,-1.5336052,82.0644,1646.7968)"
         id="g6197">
        <text
           id="text6199"
           transform="matrix(1,0,0,-1,63.9,473.1)">
          <tspan
             id="tspan6201"
             sodipodi:role="line"
             y="0"
             x="0 10.605 18.795 24.690001 33.389999 40.575001 45.465 50.355 58.544998 64.934998 68.639999 77.730003 81.510002 93.105003 99 108 121.2 127.59 132.48 136.86 143.55 151.845"
             style="font-size:15px;font-variant:normal;font-weight:bold;writing-mode:lr-tb;fill:#000000;fill-opacity:1;fill-rule:nonzero;stroke:none;font-family:Palatino LT Std;-inkscape-font-specification:PalatinoLTStdRoman">Cornettos / Drumsticks</tspan>
        </text>
      </g>
      <g
         transform="matrix(1.5336052,0,0,-1.5336052,82.0644,1646.7968)"
         id="g6203">
        <text
           id="text6205"
           transform="matrix(1,0,0,-1,309.1,473.1)">
          <tspan
             id="tspan6207"
             sodipodi:role="line"
             y="0"
             x="0 7.5 15 18.780001 26.280001"
             style="font-size:15px;font-variant:normal;font-weight:normal;writing-mode:lr-tb;fill:#000000;fill-opacity:1;fill-rule:nonzero;stroke:none;font-family:Palatino LT Std;-inkscape-font-specification:PalatinoLTStdRoman">$1.50</tspan>
        </text>
      </g>
      <g
         transform="matrix(1.5336052,0,0,-1.5336052,82.0644,1646.7968)"
         id="g6209">
        <text
           id="text6211"
           transform="matrix(1,0,0,-1,450.9,473.1)">
          <tspan
             id="tspan6213"
             sodipodi:role="line"
             y="0"
             x="0 7.5 14.895 18.674999 26.174999"
             style="font-size:15px;font-variant:normal;font-weight:normal;writing-mode:lr-tb;fill:#000000;fill-opacity:1;fill-rule:nonzero;stroke:none;font-family:Palatino LT Std;-inkscape-font-specification:PalatinoLTStdRoman">$2.00</tspan>
        </text>
      </g>
      <g
         transform="matrix(1.5336052,0,0,-1.5336052,82.0644,1646.7968)"
         id="g6215">
        <text
           id="text6217"
           transform="matrix(1,0,0,-1,63.9,440.8)">
          <tspan
             id="tspan6219"
             sodipodi:role="line"
             y="0"
             x="0 11.79 16.68 25.379999 32.564999 38.459999 42.240002 46.544998 53.235001 60.330002 67.019997 72.915001 80.099998 87.599998 100.8"
             style="font-size:15px;font-variant:normal;font-weight:bold;writing-mode:lr-tb;fill:#000000;fill-opacity:1;fill-rule:nonzero;stroke:none;font-family:Palatino LT Std;-inkscape-font-specification:PalatinoLTStdRoman">Other icecreams</tspan>
        </text>
      </g>
      <g
         transform="matrix(1.5336052,0,0,-1.5336052,82.0644,1646.7968)"
         id="g6221">
        <text
           id="text6223"
           transform="matrix(1,0,0,-1,309.1,440.8)">
          <tspan
             id="tspan6225"
             sodipodi:role="line"
             y="0"
             x="0 7.5 15 18.780001 26.280001"
             style="font-size:15px;font-variant:normal;font-weight:normal;writing-mode:lr-tb;fill:#000000;fill-opacity:1;fill-rule:nonzero;stroke:none;font-family:Palatino LT Std;-inkscape-font-specification:PalatinoLTStdRoman">$1.50</tspan>
        </text>
      </g>
      <g
         transform="matrix(1.5336052,0,0,-1.5336052,82.0644,1646.7968)"
         id="g6227">
        <text
           id="text6229"
           transform="matrix(1,0,0,-1,450.9,440.8)">
          <tspan
             id="tspan6231"
             sodipodi:role="line"
             y="0"
             x="0 7.5 14.895 18.674999 26.174999"
             style="font-size:15px;font-variant:normal;font-weight:normal;writing-mode:lr-tb;fill:#000000;fill-opacity:1;fill-rule:nonzero;stroke:none;font-family:Palatino LT Std;-inkscape-font-specification:PalatinoLTStdRoman">$2.00</tspan>
        </text>
      </g>
      <g
         transform="matrix(1.5336052,0,0,-1.5336052,82.0644,1646.7968)"
         id="g6233">
        <text
           id="text6235"
           transform="matrix(1,0,0,-1,63.9,408.4)">
          <tspan
             id="tspan6237"
             sodipodi:role="line"
             y="0"
             x="0 10.605 19.305 27.495001 34.185001 42.375 46.755001 54.150002 59.040001 66.224998"
             style="font-size:15px;font-variant:normal;font-weight:bold;writing-mode:lr-tb;fill:#000000;fill-opacity:1;fill-rule:nonzero;stroke:none;font-family:Palatino LT Std;-inkscape-font-specification:PalatinoLTStdRoman">Chocolates</tspan>
        </text>
      </g>
      <g
         transform="matrix(1.5336052,0,0,-1.5336052,82.0644,1646.7968)"
         id="g6239">
        <text
           id="text6241"
           transform="matrix(1,0,0,-1,309.1,408.4)">
          <tspan
             id="tspan6243"
             sodipodi:role="line"
             y="0"
             x="0 7.5 15 18.780001 26.280001"
             style="font-size:15px;font-variant:normal;font-weight:normal;writing-mode:lr-tb;fill:#000000;fill-opacity:1;fill-rule:nonzero;stroke:none;font-family:Palatino LT Std;-inkscape-font-specification:PalatinoLTStdRoman">$1.50</tspan>
        </text>
      </g>
      <g
         transform="matrix(1.5336052,0,0,-1.5336052,82.0644,1646.7968)"
         id="g6245">
        <text
           id="text6247"
           transform="matrix(1,0,0,-1,450.9,408.4)">
          <tspan
             id="tspan6249"
             sodipodi:role="line"
             y="0"
             x="0 7.5 14.895 18.674999 26.174999"
             style="font-size:15px;font-variant:normal;font-weight:normal;writing-mode:lr-tb;fill:#000000;fill-opacity:1;fill-rule:nonzero;stroke:none;font-family:Palatino LT Std;-inkscape-font-specification:PalatinoLTStdRoman">$2.00</tspan>
        </text>
      </g>
    </g>
    <flowRoot
       xml:space="preserve"
       id="flowRoot6361"
       style="font-size:40px;font-style:normal;font-weight:normal;line-height:125%;letter-spacing:0px;word-spacing:0px;fill:#000000;fill-opacity:1;stroke:none;font-family:Sans"><flowRegion
         id="flowRegion6363"><rect
           id="rect6365"
           width="473.14288"
           height="73.672768"
           x="209.55811"
           y="402.7435" /></flowRegion><flowPara
         id="flowPara6367" /></flowRoot>    <text
       xml:space="preserve"
       style="font-size:40px;font-style:normal;font-weight:normal;line-height:125%;letter-spacing:0px;word-spacing:0px;fill:#000000;fill-opacity:1;stroke:none;font-family:Sans"
       x="427.7565"
       y="425.19684"
       id="text6369"
       sodipodi:linespacing="125%"><tspan
         sodipodi:role="line"
         id="tspan6371"
         x="427.7565"
         y="425.19684"
         style="font-size:50px;font-style:normal;font-variant:normal;font-weight:600;font-stretch:normal;font-family:Palatino LT Std;-inkscape-font-specification:Palatino LT Std Semi-Bold">Price list</tspan></text>
    <flowRoot
       xml:space="preserve"
       id="flowRoot7053"
       style="font-size:40px;font-style:normal;font-weight:normal;line-height:125%;letter-spacing:0px;word-spacing:0px;fill:#000000;fill-opacity:1;stroke:none;font-family:Sans"
       transform="translate(44.319239,198.85727)"><flowRegion
         id="flowRegion7055"><rect
           id="rect7057"
           width="759.20026"
           height="106.0502"
           x="101.82338"
           y="1052.6112" /></flowRegion><flowPara
         id="flowPara7059"
         style="font-style:normal;font-variant:normal;font-weight:normal;font-stretch:normal;text-align:center;text-anchor:middle;font-family:Palatino LT Std;-inkscape-font-specification:Palatino LT Std">Please place money in the elephant bowl, located inside the fridge.</flowPara></flowRoot>  </g>
  <g
     inkscape:label="Logo"
     inkscape:groupmode="layer"
     id="layer1"
     transform="translate(0,435.82692)"
     style="display:inline"
     sodipodi:insensitive="true">
    <text
       xml:space="preserve"
       style="font-size:20px;font-style:normal;font-weight:normal;line-height:125%;letter-spacing:0px;word-spacing:0px;fill:#000000;fill-opacity:1;stroke:none;font-family:Sans"
       x="411.13318"
       y="112.29851"
       id="text3880"
       sodipodi:linespacing="125%"><tspan
         sodipodi:role="line"
         id="tspan3882"
         x="411.13318"
         y="112.29851" /></text>
    <g
       id="g3846"
       transform="matrix(0.5,0,0,0.5,0.00109863,-288.77773)">
      <rect
         y="-202.78423"
         x="297.63556"
         height="526.0592"
         width="1509.4489"
         id="rect3844"
         style="fill:#c02626;fill-opacity:1" />
      <path
         transform="matrix(1.6057309,0,0,0.34590553,-1911.3603,-279.59838)"
         d="m 2499.9999,982.47565 a 654.28571,654.28571 0 1 1 -1308.5714,0 654.28571,654.28571 0 1 1 1308.5714,0 z"
         sodipodi:ry="654.28571"
         sodipodi:rx="654.28571"
         sodipodi:cy="982.47565"
         sodipodi:cx="1845.7142"
         id="path3819"
         style="fill:url(#radialGradient3058);fill-opacity:1;stroke:none"
         sodipodi:type="arc" />
      <rect
         style="fill:#c02626;fill-opacity:1"
         id="rect3815"
         width="2104.72"
         height="224.40077"
         x="0"
         y="60.24538" />
      <g
         transform="matrix(3.4258187,0,0,3.4258187,-1845.2098,-1413.9374)"
         id="g3809">
        <path
           style="font-size:medium;font-style:normal;font-variant:normal;font-weight:normal;font-stretch:normal;text-indent:0;text-align:start;text-decoration:none;line-height:normal;letter-spacing:normal;word-spacing:normal;text-transform:none;direction:ltr;block-progression:tb;writing-mode:lr-tb;text-anchor:start;baseline-shift:baseline;color:#000000;fill:#ffffff;fill-opacity:1;stroke:none;stroke-width:15;marker:none;visibility:visible;display:inline;overflow:visible;enable-background:accumulate;font-family:Sans;-inkscape-font-specification:Sans"
           d="m 745.1875,387.375 a 7.50075,7.50075 0 0 0 -7.5,7.5 l 0,65 a 7.50075,7.50075 0 0 0 7.5,7.5 l 30.15625,0 a 7.50075,7.50075 0 1 0 0,-15 l -22.65625,0 0,-50 22.65625,0 a 7.50075,7.50075 0 1 0 0,-15 l -30.15625,0 z"
           id="path3795"
           inkscape:connector-curvature="0" />
        <path
           style="font-size:medium;font-style:normal;font-variant:normal;font-weight:normal;font-stretch:normal;text-indent:0;text-align:start;text-decoration:none;line-height:normal;letter-spacing:normal;word-spacing:normal;text-transform:none;direction:ltr;block-progression:tb;writing-mode:lr-tb;text-anchor:start;baseline-shift:baseline;color:#000000;fill:#ffffff;fill-opacity:1;stroke:none;stroke-width:15;marker:none;visibility:visible;display:inline;overflow:visible;enable-background:accumulate;font-family:Sans;-inkscape-font-specification:Sans"
           d="m 802.1875,387.375 a 7.50075,7.50075 0 0 0 -7.5,7.5 l 0,32.5 a 7.50075,7.50075 0 0 0 7.5,7.5 l 22.6875,0 0,17.5 -22.6875,0 a 7.50075,7.50075 0 1 0 0,15 l 30.1875,0 a 7.50075,7.50075 0 0 0 7.5,-7.5 l 0,-32.5 a 7.50075,7.50075 0 0 0 -7.5,-7.5 l -22.6875,0 0,-17.5 22.6875,0 a 7.50075,7.50075 0 1 0 0,-15 l -30.1875,0 z"
           id="path3801"
           inkscape:connector-curvature="0" />
        <path
           style="font-size:medium;font-style:normal;font-variant:normal;font-weight:normal;font-stretch:normal;text-indent:0;text-align:start;text-decoration:none;line-height:normal;letter-spacing:normal;word-spacing:normal;text-transform:none;direction:ltr;block-progression:tb;writing-mode:lr-tb;text-anchor:start;baseline-shift:baseline;color:#000000;fill:#ffffff;fill-opacity:1;stroke:none;stroke-width:15;marker:none;visibility:visible;display:inline;overflow:visible;enable-background:accumulate;font-family:Sans;-inkscape-font-specification:Sans"
           d="m 859.21875,387 a 7.50075,7.50075 0 0 0 -7.5,7.5 l 0,32.5 a 7.50075,7.50075 0 0 0 7.5,7.5 l 22.6875,0 0,17.5 -22.6875,0 a 7.50075,7.50075 0 1 0 0,15 l 30.1875,0 a 7.50075,7.50075 0 0 0 7.5,-7.5 l 0,-32.5 a 7.50075,7.50075 0 0 0 -7.5,-7.5 l -22.6875,0 0,-17.5 22.6875,0 a 7.50075,7.50075 0 1 0 0,-15 l -30.1875,0 z"
           id="path3805"
           inkscape:connector-curvature="0" />
        <path
           style="font-size:medium;font-style:normal;font-variant:normal;font-weight:normal;font-stretch:normal;text-indent:0;text-align:start;text-decoration:none;line-height:normal;letter-spacing:normal;word-spacing:normal;text-transform:none;direction:ltr;block-progression:tb;writing-mode:lr-tb;text-anchor:start;baseline-shift:baseline;color:#000000;fill:#ffffff;fill-opacity:1;stroke:none;stroke-width:15;marker:none;visibility:visible;display:inline;overflow:visible;enable-background:accumulate;font-family:Sans;-inkscape-font-specification:Sans"
           d="m 916.25,387.375 a 7.50075,7.50075 0 0 0 -7.5,7.5 l 0,65 a 7.50075,7.50075 0 0 0 7.5,7.5 l 30.1875,0 a 7.50075,7.50075 0 1 0 0,-15 l -22.6875,0 0,-50 22.6875,0 a 7.50075,7.50075 0 1 0 0,-15 l -30.1875,0 z"
           id="path3807"
           inkscape:connector-curvature="0" />
      </g>
      <path
         sodipodi:type="arc"
         style="fill:url(#radialGradient3117);fill-opacity:1;stroke:none"
         id="path3837"
         sodipodi:cx="1845.7142"
         sodipodi:cy="982.47565"
         sodipodi:rx="654.28571"
         sodipodi:ry="654.28571"
         d="m 2499.9999,982.47565 a 654.28571,654.28571 0 1 1 -1308.5714,0 654.28571,654.28571 0 1 1 1308.5714,0 z"
         transform="matrix(0.82323564,0,0,0.15937545,-467.09776,28.575325)" />
      <text
         xml:space="preserve"
         style="font-size:50.16439056px;font-style:normal;font-weight:normal;line-height:125%;letter-spacing:0px;word-spacing:0px;fill:#ffffff;fill-opacity:1;stroke:none;font-family:Sans"
         x="687.5238"
         y="260.57318"
         id="text3011"
         sodipodi:linespacing="125%"><tspan
           sodipodi:role="line"
           id="tspan3013"
           x="687.5238"
           y="260.57318"
           style="font-style:normal;font-variant:normal;font-weight:normal;font-stretch:normal;fill:#ffffff;font-family:Palatino LT Std;-inkscape-font-specification:Palatino LT Std">Computer Science Students Club</tspan></text>
    </g>
  </g>
</svg>
