<?xml version="1.0" encoding="UTF-8" standalone="no"?>
<!-- Created with Inkscape (http://www.inkscape.org/) -->

<svg
   xmlns:dc="http://purl.org/dc/elements/1.1/"
   xmlns:cc="http://creativecommons.org/ns#"
   xmlns:rdf="http://www.w3.org/1999/02/22-rdf-syntax-ns#"
   xmlns:svg="http://www.w3.org/2000/svg"
   xmlns="http://www.w3.org/2000/svg"
   xmlns:xlink="http://www.w3.org/1999/xlink"
   xmlns:sodipodi="http://sodipodi.sourceforge.net/DTD/sodipodi-0.dtd"
   xmlns:inkscape="http://www.inkscape.org/namespaces/inkscape"
   width="2104.72"
   height="1488.1899"
   id="svg2"
   version="1.1"
   inkscape:version="0.48.2 r9819"
   sodipodi:docname="cssc-sign-clubroom-left.svg">
  <defs
     id="defs4">
    <linearGradient
       id="linearGradient3829">
      <stop
         style="stop-color:#ffffff;stop-opacity:0.14615385;"
         offset="0"
         id="stop3831" />
      <stop
         style="stop-color:#ffffff;stop-opacity:0;"
         offset="1"
         id="stop3833" />
    </linearGradient>
    <radialGradient
       inkscape:collect="always"
       xlink:href="#linearGradient3829"
       id="radialGradient3860"
       gradientUnits="userSpaceOnUse"
       cx="1845.7142"
       cy="982.47565"
       fx="1845.7142"
       fy="982.47565"
       r="661.78571" />
    <radialGradient
       inkscape:collect="always"
       xlink:href="#linearGradient3829"
       id="radialGradient3874"
       gradientUnits="userSpaceOnUse"
       cx="1845.7142"
       cy="982.47565"
       fx="1845.7142"
       fy="982.47565"
       r="661.78571" />
    <radialGradient
       inkscape:collect="always"
       xlink:href="#linearGradient3829"
       id="radialGradient3850"
       gradientUnits="userSpaceOnUse"
       cx="1845.7142"
       cy="982.47565"
       fx="1845.7142"
       fy="982.47565"
       r="661.78571" />
    <radialGradient
       inkscape:collect="always"
       xlink:href="#linearGradient3829"
       id="radialGradient3852"
       gradientUnits="userSpaceOnUse"
       cx="1845.7142"
       cy="982.47565"
       fx="1845.7142"
       fy="982.47565"
       r="661.78571" />
    <radialGradient
       inkscape:collect="always"
       xlink:href="#linearGradient3829"
       id="radialGradient4049"
       gradientUnits="userSpaceOnUse"
       cx="1845.7142"
       cy="982.47565"
       fx="1845.7142"
       fy="982.47565"
       r="661.78571" />
    <radialGradient
       inkscape:collect="always"
       xlink:href="#linearGradient3829"
       id="radialGradient4051"
       gradientUnits="userSpaceOnUse"
       cx="1845.7142"
       cy="982.47565"
       fx="1845.7142"
       fy="982.47565"
       r="661.78571" />
  </defs>
  <sodipodi:namedview
     id="base"
     pagecolor="#ffffff"
     bordercolor="#666666"
     borderopacity="1.0"
     inkscape:pageopacity="0.0"
     inkscape:pageshadow="2"
     inkscape:zoom="0.35001786"
     inkscape:cx="975.90328"
     inkscape:cy="809.14568"
     inkscape:document-units="px"
     inkscape:current-layer="g3809"
     showgrid="false"
     width="2104.72px"
     inkscape:window-width="960"
     inkscape:window-height="1027"
     inkscape:window-x="960"
     inkscape:window-y="24"
     inkscape:window-maximized="0"
     units="mm"
     showguides="true"
     inkscape:guide-bbox="true" />
  <metadata
     id="metadata7">
    <rdf:RDF>
      <cc:Work
         rdf:about="">
        <dc:format>image/svg+xml</dc:format>
        <dc:type
           rdf:resource="http://purl.org/dc/dcmitype/StillImage" />
        <dc:title></dc:title>
      </cc:Work>
    </rdf:RDF>
  </metadata>
  <g
     inkscape:label="Layer 1"
     inkscape:groupmode="layer"
     id="layer1"
     transform="translate(0,435.82786)">
    <rect
       style="fill:#c02626;fill-opacity:1"
       id="rect2996"
       width="2104.72"
       height="1488.1899"
       x="0"
       y="-435.82785" />
    <text
       xml:space="preserve"
       style="font-size:40px;font-style:normal;font-weight:normal;line-height:125%;letter-spacing:0px;word-spacing:0px;fill:#000000;fill-opacity:1;stroke:none;font-family:Sans"
       x="822.26416"
       y="1096.2509"
       id="text3880"
       sodipodi:linespacing="125%"
       transform="translate(0,-435.82786)"><tspan
         sodipodi:role="line"
         id="tspan3882"
         x="822.26416"
         y="1096.2509" /></text>
    <g
       transform="matrix(0.92469366,0,0,0.92469366,241.49701,-118.02912)"
       id="g3844">
      <g
         id="g4097"
         transform="matrix(-1,0,0,1,1753.8112,0)">
        <path
           style="color:#000000;fill:#ffffff;fill-opacity:1;stroke:none;stroke-width:50;marker:none;visibility:visible;display:inline;overflow:visible;enable-background:accumulate"
           d="m 556.4375,1190.1562 0,150.9688 166.125,0 162.46875,0 519.03125,0 0,-150.9688 -519.03125,0 -162.46875,0 -166.125,0 z"
           id="rect3830"
           transform="matrix(1.4054028,0,0,1.4054028,-602.09258,-887.80986)"
           inkscape:connector-curvature="0" />
        <path
           sodipodi:type="star"
           style="color:#000000;fill:#ffffff;fill-opacity:1;stroke:none;stroke-width:50;marker:none;visibility:visible;display:inline;overflow:visible;enable-background:accumulate"
           id="path3832"
           sodipodi:sides="3"
           sodipodi:cx="982.85712"
           sodipodi:cy="1251.0471"
           sodipodi:r1="229.01743"
           sodipodi:r2="114.50872"
           sodipodi:arg1="0"
           sodipodi:arg2="1.0471976"
           inkscape:flatsided="false"
           inkscape:rounded="0"
           inkscape:randomized="0"
           d="m 1211.8745,1251.0471 -171.763,99.1675 -171.7631,99.1674 0,-198.3349 0,-198.3349 171.7631,99.1675 z"
           transform="matrix(0.6687012,0,0,0.85819299,763.50295,-182.72294)"
           inkscape:transform-center-x="-38.286113" />
      </g>
      <text
         sodipodi:linespacing="125%"
         id="text3821"
         y="939.97595"
         x="427.54614"
         style="font-size:38.98502731px;font-style:normal;font-weight:normal;line-height:125%;letter-spacing:0px;word-spacing:0px;fill:#c02626;fill-opacity:1;stroke:none;font-family:Sans"
         xml:space="preserve"><tspan
           style="font-size:140.34609985px;fill:#c02626;fill-opacity:1;font-family:Bebas Neue;-inkscape-font-specification:Bebas Neue"
           y="939.97595"
           x="427.54614"
           id="tspan3823"
           sodipodi:role="line">Club room this way</tspan></text>
    </g>
    <g
       id="g3846"
       transform="translate(0,2e-5)">
      <rect
         y="-306.51346"
         x="0"
         height="733.51764"
         width="2104.72"
         id="rect3844"
         style="fill:#c02626;fill-opacity:1" />
      <path
         transform="matrix(1.6057309,0,0,0.34590553,-1911.3603,-279.59838)"
         d="m 2499.9999,982.47565 c 0,361.35205 -292.9336,654.28575 -654.2857,654.28575 -361.352,0 -654.2857,-292.9337 -654.2857,-654.28575 0,-361.35202 292.9337,-654.28571 654.2857,-654.28571 361.3521,0 654.2857,292.93369 654.2857,654.28571 z"
         sodipodi:ry="654.28571"
         sodipodi:rx="654.28571"
         sodipodi:cy="982.47565"
         sodipodi:cx="1845.7142"
         id="path3819"
         style="fill:url(#radialGradient4049);fill-opacity:1;stroke:none"
         sodipodi:type="arc" />
      <rect
         style="fill:#c02626;fill-opacity:1"
         id="rect3815"
         width="2104.72"
         height="224.40077"
         x="0"
         y="60.24538" />
      <g
         transform="matrix(4.7768356,0,0,4.7768356,-2987.9047,-1995.3009)"
         id="g3809">
        <path
           style="font-size:medium;font-style:normal;font-variant:normal;font-weight:normal;font-stretch:normal;text-indent:0;text-align:start;text-decoration:none;line-height:normal;letter-spacing:normal;word-spacing:normal;text-transform:none;direction:ltr;block-progression:tb;writing-mode:lr-tb;text-anchor:start;baseline-shift:baseline;color:#000000;fill:#ffffff;fill-opacity:1;stroke:none;stroke-width:15;marker:none;visibility:visible;display:inline;overflow:visible;enable-background:accumulate;font-family:Sans;-inkscape-font-specification:Sans"
           d="m 745.1875,387.375 a 7.50075,7.50075 0 0 0 -7.5,7.5 l 0,65 a 7.50075,7.50075 0 0 0 7.5,7.5 l 30.15625,0 a 7.50075,7.50075 0 1 0 0,-15 l -22.65625,0 0,-50 22.65625,0 a 7.50075,7.50075 0 1 0 0,-15 l -30.15625,0 z"
           id="path3795"
           inkscape:connector-curvature="0" />
        <path
           style="font-size:medium;font-style:normal;font-variant:normal;font-weight:normal;font-stretch:normal;text-indent:0;text-align:start;text-decoration:none;line-height:normal;letter-spacing:normal;word-spacing:normal;text-transform:none;direction:ltr;block-progression:tb;writing-mode:lr-tb;text-anchor:start;baseline-shift:baseline;color:#000000;fill:#ffffff;fill-opacity:1;stroke:none;stroke-width:15;marker:none;visibility:visible;display:inline;overflow:visible;enable-background:accumulate;font-family:Sans;-inkscape-font-specification:Sans"
           d="m 802.1875,387.375 a 7.50075,7.50075 0 0 0 -7.5,7.5 l 0,32.5 a 7.50075,7.50075 0 0 0 7.5,7.5 l 22.6875,0 0,17.5 -22.6875,0 a 7.50075,7.50075 0 1 0 0,15 l 30.1875,0 a 7.50075,7.50075 0 0 0 7.5,-7.5 l 0,-32.5 a 7.50075,7.50075 0 0 0 -7.5,-7.5 l -22.6875,0 0,-17.5 22.6875,0 a 7.50075,7.50075 0 1 0 0,-15 l -30.1875,0 z"
           id="path3801"
           inkscape:connector-curvature="0" />
        <path
           style="font-size:medium;font-style:normal;font-variant:normal;font-weight:normal;font-stretch:normal;text-indent:0;text-align:start;text-decoration:none;line-height:normal;letter-spacing:normal;word-spacing:normal;text-transform:none;direction:ltr;block-progression:tb;writing-mode:lr-tb;text-anchor:start;baseline-shift:baseline;color:#000000;fill:#ffffff;fill-opacity:1;stroke:none;stroke-width:15;marker:none;visibility:visible;display:inline;overflow:visible;enable-background:accumulate;font-family:Sans;-inkscape-font-specification:Sans"
           d="m 859.21875,387 a 7.50075,7.50075 0 0 0 -7.5,7.5 l 0,32.5 a 7.50075,7.50075 0 0 0 7.5,7.5 l 22.6875,0 0,17.5 -22.6875,0 a 7.50075,7.50075 0 1 0 0,15 l 30.1875,0 a 7.50075,7.50075 0 0 0 7.5,-7.5 l 0,-32.5 a 7.50075,7.50075 0 0 0 -7.5,-7.5 l -22.6875,0 0,-17.5 22.6875,0 a 7.50075,7.50075 0 1 0 0,-15 l -30.1875,0 z"
           id="path3805"
           inkscape:connector-curvature="0" />
        <path
           style="font-size:medium;font-style:normal;font-variant:normal;font-weight:normal;font-stretch:normal;text-indent:0;text-align:start;text-decoration:none;line-height:normal;letter-spacing:normal;word-spacing:normal;text-transform:none;direction:ltr;block-progression:tb;writing-mode:lr-tb;text-anchor:start;baseline-shift:baseline;color:#000000;fill:#ffffff;fill-opacity:1;stroke:none;stroke-width:15;marker:none;visibility:visible;display:inline;overflow:visible;enable-background:accumulate;font-family:Sans;-inkscape-font-specification:Sans"
           d="m 916.25,387.375 a 7.50075,7.50075 0 0 0 -7.5,7.5 l 0,65 a 7.50075,7.50075 0 0 0 7.5,7.5 l 30.1875,0 a 7.50075,7.50075 0 1 0 0,-15 l -22.6875,0 0,-50 22.6875,0 a 7.50075,7.50075 0 1 0 0,-15 l -30.1875,0 z"
           id="path3807"
           inkscape:connector-curvature="0" />
      </g>
      <path
         sodipodi:type="arc"
         style="fill:url(#radialGradient4051);fill-opacity:1;stroke:none"
         id="path3837"
         sodipodi:cx="1845.7142"
         sodipodi:cy="982.47565"
         sodipodi:rx="654.28571"
         sodipodi:ry="654.28571"
         d="m 2499.9999,982.47565 c 0,361.35205 -292.9336,654.28575 -654.2857,654.28575 -361.352,0 -654.2857,-292.9337 -654.2857,-654.28575 0,-361.35202 292.9337,-654.28571 654.2857,-654.28571 361.3521,0 654.2857,292.93369 654.2857,654.28571 z"
         transform="matrix(1.1478895,0,0,0.22222727,-1066.316,16.085781)" />
      <text
         xml:space="preserve"
         style="font-size:69.94738007px;font-style:normal;font-weight:normal;line-height:125%;letter-spacing:0px;word-spacing:0px;fill:#ffffff;fill-opacity:1;stroke:none;font-family:Sans"
         x="543.64581"
         y="339.57504"
         id="text3011"
         sodipodi:linespacing="125%"><tspan
           sodipodi:role="line"
           id="tspan3013"
           x="543.64581"
           y="339.57504"
           style="font-style:normal;font-variant:normal;font-weight:normal;font-stretch:normal;fill:#ffffff;font-family:Palatino LT Std;-inkscape-font-specification:Palatino LT Std">Computer Science Students Club</tspan></text>
    </g>
  </g>
</svg>
